<svg width="70" height="70" viewBox="0 0 70 70" fill="none" xmlns="http://www.w3.org/2000/svg">
    <path d="M35 4.375C18.0797 4.375 4.375 18.0797 4.375 35C4.375 48.5516 13.1414 59.9977 25.3148 64.0555C26.8461 64.3234 27.4203 63.4047 27.4203 62.6008C27.4203 61.8734 27.382 59.4617 27.382 56.8969C19.6875 58.3133 17.6969 55.0211 17.0844 53.2984C16.7398 52.418 15.2469 49.7 13.9453 48.9727C12.8734 48.3984 11.3422 46.982 13.907 46.9437C16.3188 46.9055 18.0414 49.1641 18.6156 50.0828C21.3719 54.7148 25.7742 53.4133 27.5352 52.6094C27.8031 50.6187 28.607 49.2789 29.4875 48.5133C22.6734 47.7477 15.5531 45.1062 15.5531 33.3922C15.5531 30.0617 16.7398 27.3055 18.6922 25.1617C18.3859 24.3961 17.3141 21.257 18.9984 17.0461C18.9984 17.0461 21.5633 16.2422 27.4203 20.1852C29.8703 19.4961 32.4734 19.1516 35.0766 19.1516C37.6797 19.1516 40.2828 19.4961 42.7328 20.1852C48.5898 16.2039 51.1547 17.0461 51.1547 17.0461C52.8391 21.257 51.7672 24.3961 51.4609 25.1617C53.4133 27.3055 54.6 30.0234 54.6 33.3922C54.6 45.1445 47.4414 47.7477 40.6273 48.5133C41.7375 49.4703 42.6945 51.3078 42.6945 54.1789C42.6945 58.275 42.6562 61.5672 42.6562 62.6008C42.6562 63.4047 43.2305 64.3617 44.7617 64.0555C50.8413 62.003 56.1243 58.0957 59.8669 52.8836C63.6095 47.6714 65.6234 41.4167 65.625 35C65.625 18.0797 51.9203 4.375 35 4.375Z" fill="#615DEE"/>
</svg>
