<svg width="70" height="70" viewBox="0 0 70 70" fill="none" xmlns="http://www.w3.org/2000/svg">
    <rect x="5.125" y="5.125" width="59.75" height="59.75" rx="29.875" fill="white" stroke="#615DEE" stroke-width="1.5"/>
    <path d="M27.6031 21.2016C27.6031 23.2459 25.8311 24.9032 23.6453 24.9032C21.4595 24.9032 19.6875 23.2459 19.6875 21.2016C19.6875 19.1573 21.4595 17.5 23.6453 17.5C25.8311 17.5 27.6031 19.1573 27.6031 21.2016Z" fill="#615DEE"/>
    <path d="M20.2287 27.624H26.9942V48.125H20.2287V27.624Z" fill="#615DEE"/>
    <path d="M37.8866 27.624H31.1211V48.125H37.8866C37.8866 48.125 37.8866 41.671 37.8866 37.6356C37.8866 35.2135 38.7136 32.7809 42.0135 32.7809C45.7428 32.7809 45.7204 35.9505 45.703 38.4061C45.6803 41.616 45.7345 44.8916 45.7345 48.125H52.5V37.305C52.4427 30.3961 50.6424 27.2127 44.7197 27.2127C41.2024 27.2127 39.0222 28.8095 37.8866 30.2542V27.624Z" fill="#615DEE"/>
</svg>
